<?xml version="1.0" standalone="no"?>
<!DOCTYPE svg PUBLIC "-//W3C//DTD SVG 20010904//EN"
 "http://www.w3.org/TR/2001/REC-SVG-20010904/DTD/svg10.dtd">
<svg version="1.0" xmlns="http://www.w3.org/2000/svg"
 width="1000.000000pt" height="1000.000000pt" viewBox="0 0 1000.000000 1000.000000"
 preserveAspectRatio="xMidYMid meet">
<metadata>
Created by potrace 1.11, written by Peter Selinger 2001-2013
</metadata>
<g transform="translate(0.000000,1000.000000) scale(0.100000,-0.100000)"
fill="#000000" stroke="none">
<path d="M1846 9052 c-53 -15 -64 -24 -117 -87 -55 -67 -58 -74 -73 -160 -24
-140 -21 -333 9 -500 13 -77 31 -162 40 -189 26 -85 16 -88 -40 -14 -22 28
-44 56 -50 62 -10 9 -45 53 -158 196 -7 8 -27 34 -45 56 -29 37 -126 230 -196
387 -38 87 -66 87 -111 -3 -54 -106 -69 -276 -45 -480 10 -82 59 -238 103
-325 16 -33 1 -21 -79 65 -175 187 -368 380 -380 380 -30 0 -37 -28 -24 -112
36 -250 138 -579 215 -696 l36 -53 -28 15 c-15 7 -75 43 -133 78 -58 34 -124
72 -148 82 -39 18 -44 18 -59 3 -22 -22 -6 -100 56 -266 56 -152 88 -205 193
-322 l77 -86 -85 -6 c-62 -4 -97 -12 -127 -29 -40 -22 -42 -25 -45 -78 -6
-110 60 -296 138 -390 23 -27 64 -66 92 -86 l50 -38 -88 -42 c-116 -55 -137
-77 -142 -153 -4 -50 0 -67 22 -108 71 -130 228 -273 316 -288 40 -7 41 -8 26
-28 -9 -12 -28 -44 -42 -71 -34 -65 -27 -113 34 -230 39 -75 59 -100 122 -154
83 -71 125 -95 192 -112 l45 -12 -14 -71 c-9 -45 -13 -108 -10 -165 4 -88 7
-99 53 -190 35 -68 59 -103 82 -119 64 -42 289 -78 445 -71 59 3 86 1 84 -6
-8 -22 66 -150 112 -196 48 -48 96 -70 152 -70 41 0 245 47 279 65 16 8 46 30
67 48 22 19 38 27 40 20 14 -40 69 -97 116 -118 62 -29 160 -55 202 -55 43 0
163 33 210 57 49 25 126 106 144 150 l13 32 44 -30 c87 -60 119 -69 244 -69
98 0 123 4 173 24 l57 24 0 -57 c0 -79 34 -191 88 -292 l46 -86 -34 -44 c-19
-24 -82 -102 -140 -174 -151 -184 -185 -254 -185 -382 0 -74 3 -85 30 -124 51
-72 81 -84 217 -84 65 0 118 3 118 8 0 4 6 7 14 7 9 0 -5 -53 -49 -179 -88
-253 -99 -303 -92 -422 6 -111 29 -176 98 -266 56 -74 103 -96 185 -88 67 8
164 47 222 92 18 14 36 22 39 19 4 -3 1 -63 -5 -133 -7 -71 -15 -171 -18 -223
-16 -252 90 -495 273 -626 66 -47 270 -144 303 -144 34 0 237 97 304 145 183
130 288 372 272 625 -3 52 -11 152 -18 223 -6 70 -9 130 -5 133 3 3 21 -5 39
-19 59 -45 136 -77 211 -89 67 -10 75 -9 114 11 49 25 110 101 149 184 20 46
27 79 31 156 7 119 1 146 -84 399 -36 106 -64 195 -61 197 2 3 18 1 34 -4 16
-4 72 -8 124 -7 111 1 147 17 195 85 28 40 30 49 30 129 0 80 -3 94 -38 165
-23 50 -70 119 -125 185 -84 102 -170 212 -186 239 -4 8 12 48 38 95 52 97 86
210 86 289 l0 57 58 -24 c49 -20 74 -24 172 -24 125 0 157 9 244 69 l44 30 13
-32 c18 -44 95 -125 144 -150 47 -24 167 -57 210 -57 42 0 140 26 202 55 47
21 102 78 116 118 2 7 18 -1 40 -20 55 -48 86 -61 209 -88 125 -28 146 -29
202 -14 71 20 177 146 196 234 5 22 11 29 26 28 148 -18 435 23 506 71 43 28
112 151 127 223 15 74 14 183 -2 260 l-13 62 44 11 c67 17 109 41 193 113 65
55 83 79 123 155 60 118 67 162 32 228 -14 27 -33 59 -41 70 -15 21 -14 22 22
29 75 14 164 80 246 183 81 102 100 143 95 214 -5 75 -26 97 -141 152 l-89 42
55 42 c73 55 120 114 161 203 46 100 68 188 64 262 -3 61 -3 62 -45 85 -30 17
-65 25 -127 29 l-85 6 66 71 c36 39 85 101 110 137 49 74 134 287 153 387 11
56 11 65 -3 79 -15 15 -20 15 -59 -3 -24 -10 -90 -48 -148 -82 -58 -35 -118
-71 -133 -78 l-28 -15 36 53 c77 117 179 446 215 696 13 84 6 112 -24 112 -12
0 -207 -194 -373 -372 l-90 -97 47 128 c54 145 70 239 70 420 0 123 -16 204
-55 281 -47 92 -73 91 -116 -7 -103 -233 -157 -331 -244 -443 -96 -123 -256
-320 -260 -320 -2 0 8 39 21 88 45 162 66 340 61 507 -7 221 -16 259 -88 343
-57 69 -60 70 -134 88 -66 15 -77 16 -90 3 -10 -10 -17 -61 -26 -179 -6 -91
-14 -183 -18 -205 -4 -22 -4 -57 -1 -77 4 -21 4 -38 0 -38 -4 0 -10 -48 -13
-107 -17 -267 -20 -310 -26 -348 -7 -38 -8 -35 -20 45 -23 158 -51 251 -107
357 -48 90 -64 110 -142 178 -110 97 -201 145 -274 145 -54 0 -233 -44 -255
-62 -7 -6 -13 -16 -13 -23 0 -7 57 -63 128 -125 70 -61 135 -123 145 -138 26
-40 123 -355 137 -446 17 -109 2 -117 -46 -24 -28 53 -62 97 -125 159 -76 75
-96 89 -160 112 -82 30 -200 36 -273 14 -77 -23 -77 -22 130 -299 l191 -253
-56 -25 c-104 -46 -281 -207 -336 -305 -83 -150 -119 -396 -79 -547 24 -93 9
-153 -55 -221 -37 -40 -209 -144 -267 -162 -27 -8 -51 -15 -54 -16 -3 -1 -9
-3 -15 -5 -137 -44 -162 -48 -320 -48 -185 0 -189 1 -406 109 -233 117 -324
135 -689 135 -365 0 -456 -18 -689 -135 -219 -109 -220 -110 -411 -108 -164 1
-166 1 -299 42 -109 33 -154 53 -235 104 -108 67 -166 129 -166 176 0 15 -5
32 -11 38 -9 9 -7 30 6 83 35 144 5 382 -67 530 -52 108 -234 279 -349 330
l-56 25 191 253 c207 277 207 276 130 299 -72 22 -194 16 -270 -13 -111 -42
-235 -164 -300 -298 -25 -49 -29 -54 -36 -35 -4 11 -3 53 3 92 12 84 100 363
132 423 13 25 73 86 150 154 70 61 127 118 127 125 0 7 -6 17 -12 23 -23 18
-202 62 -256 62 -72 0 -164 -48 -274 -145 -75 -65 -95 -90 -137 -169 -52 -94
-99 -255 -116 -389 -3 -32 -9 -57 -11 -54 -3 3 -14 130 -24 283 -11 154 -24
333 -29 399 -6 66 -13 158 -16 205 -4 47 -11 91 -17 98 -13 16 -39 14 -112 -6z
m53 -537 c0 -33 5 -113 11 -178 6 -65 10 -124 9 -130 -1 -7 0 -19 3 -27 4 -8
12 -43 19 -78 6 -35 25 -90 40 -123 34 -72 134 -209 153 -209 29 0 47 41 71
163 13 69 36 165 51 214 29 99 93 222 123 241 26 15 27 20 -10 -118 -66 -250
-44 -541 45 -594 15 -9 26 -2 69 49 79 92 156 163 215 196 29 17 55 29 57 27
3 -2 -29 -51 -70 -108 -41 -58 -75 -109 -75 -115 0 -6 36 -46 81 -90 93 -92
208 -249 249 -338 73 -163 129 -400 136 -577 5 -101 8 -121 35 -175 16 -33 57
-96 92 -139 53 -68 77 -88 164 -141 75 -45 129 -69 202 -90 93 -26 107 -28
233 -22 160 6 252 26 336 73 111 62 303 130 421 150 14 2 67 11 116 21 67 12
149 17 320 17 254 1 349 -11 555 -65 108 -29 286 -98 299 -116 9 -13 79 -41
146 -58 33 -9 122 -19 198 -22 132 -6 143 -5 240 23 148 42 290 132 370 234
78 99 117 184 117 252 1 185 62 458 142 638 38 84 157 246 247 335 45 44 81
84 81 90 0 6 -34 57 -75 115 -41 57 -73 106 -70 108 2 2 28 -10 57 -26 58 -34
148 -116 220 -202 39 -46 49 -53 64 -44 35 21 54 60 70 144 24 126 14 301 -25
450 -16 63 -29 116 -27 117 12 12 42 -19 72 -74 46 -81 87 -212 119 -378 27
-139 45 -173 83 -161 12 4 24 16 27 27 4 11 16 30 28 42 23 24 28 32 74 106
52 86 72 202 93 551 6 96 13 176 15 179 3 2 13 -17 24 -41 29 -68 25 -293 -6
-378 -3 -8 -7 -26 -8 -40 -7 -65 -17 -121 -51 -299 -38 -200 -38 -221 6 -221
22 0 444 438 498 518 24 34 47 62 53 62 21 0 -8 -225 -63 -482 -34 -161 -32
-178 21 -178 20 0 70 42 221 185 107 101 196 183 197 181 6 -6 -39 -190 -62
-251 -14 -38 -57 -127 -96 -196 -38 -69 -69 -129 -69 -134 0 -14 32 -45 46
-45 32 0 232 86 291 126 36 24 70 44 75 44 34 0 -95 -230 -155 -276 -77 -60
-207 -178 -207 -189 0 -24 31 -37 160 -70 72 -18 140 -41 150 -50 29 -26 33
-73 9 -121 -27 -57 -90 -126 -205 -225 -52 -44 -94 -86 -94 -93 0 -20 60 -85
93 -102 59 -30 137 -94 153 -127 54 -103 -36 -193 -231 -232 -112 -22 -114
-25 -82 -127 14 -46 33 -111 42 -145 15 -61 15 -63 -10 -126 -14 -35 -38 -78
-53 -95 -33 -39 -169 -117 -239 -138 -28 -8 -56 -20 -61 -27 -7 -8 -7 -53 0
-135 13 -156 -6 -258 -56 -307 -61 -61 -214 -108 -424 -130 -61 -7 -63 -8
-108 -65 -49 -62 -91 -86 -193 -110 -76 -18 -199 -8 -300 25 l-84 27 -81 -41
c-52 -26 -105 -45 -147 -51 -59 -9 -73 -7 -136 14 -127 43 -184 84 -214 153
-10 24 -26 46 -34 49 -9 4 -69 -16 -133 -44 -64 -28 -139 -56 -165 -62 -58
-13 -184 1 -300 32 -89 23 -107 17 -107 -38 0 -93 -64 -296 -137 -433 l-45
-85 17 -35 c23 -48 145 -255 221 -377 69 -109 78 -147 49 -204 -20 -38 -78
-47 -203 -31 -137 18 -134 25 -88 -191 20 -95 46 -211 58 -258 38 -155 41
-197 22 -282 -9 -42 -29 -98 -43 -125 l-26 -48 -65 -3 c-78 -4 -155 11 -233
46 -50 22 -60 23 -72 11 -7 -8 -27 -70 -44 -139 -42 -173 -92 -323 -134 -405
-47 -90 -53 -97 -107 -126 -63 -33 -222 -34 -291 -3 -98 45 -161 181 -249 534
-17 69 -37 131 -45 139 -12 12 -22 11 -72 -11 -78 -35 -155 -50 -233 -46 l-65
3 -24 43 c-61 112 -71 233 -30 374 11 36 24 93 30 125 5 32 24 122 41 201 41
181 42 179 -94 161 -125 -16 -183 -7 -203 31 -30 57 -20 95 50 206 80 125 235
394 235 407 0 5 -18 42 -39 81 -71 129 -141 348 -141 440 0 55 -18 61 -107 38
-116 -31 -242 -45 -300 -32 -26 6 -101 34 -165 62 -64 28 -124 48 -132 45 -9
-4 -22 -23 -31 -44 -30 -72 -89 -115 -215 -158 -66 -22 -80 -24 -139 -15 -42
6 -95 25 -147 51 l-81 41 -84 -27 c-112 -35 -232 -43 -318 -20 -68 17 -141 50
-141 63 0 4 -19 28 -43 54 l-42 47 -95 11 c-52 6 -125 17 -162 25 -85 17 -208
74 -235 109 -12 14 -29 61 -38 103 -15 65 -16 93 -6 196 7 85 7 124 0 133 -6
7 -34 20 -62 28 -70 21 -206 99 -239 138 -15 17 -39 60 -52 94 l-26 63 25 98
c14 54 33 119 42 146 22 62 13 71 -92 92 -193 38 -284 130 -231 232 16 33 94
97 153 127 33 16 93 82 93 102 0 6 -30 38 -67 70 -181 154 -246 235 -246 305
0 62 21 76 172 114 188 47 194 56 99 136 -141 117 -181 157 -228 229 -39 60
-80 144 -80 166 0 11 24 0 83 -40 59 -39 257 -126 288 -126 16 0 49 30 49 43
0 6 -31 67 -69 136 -39 69 -83 162 -100 207 -29 79 -63 234 -52 234 3 0 92
-81 196 -180 146 -138 196 -180 216 -180 53 0 55 17 21 178 -53 250 -89 523
-65 497 5 -5 31 -41 58 -80 61 -87 472 -515 496 -515 46 0 45 35 -6 280 -8 36
-28 147 -44 247 -38 224 -41 340 -9 410 l21 48 9 -55 c4 -30 8 -82 7 -115z"/>
</g>
</svg>
